<svg xmlns="http://www.w3.org/2000/svg" width="512pt" height="512pt" viewBox="0 0 512 512"><path d="m386.53 169.2c-6.8672-1.6445-13.781 2.5742-15.441 9.4531l-16.016 66.523-122.16 122.16-88.25-88.242 122.16-122.16 66.527-16.016c6.875-1.6523 11.105-8.5664 9.4531-15.441s-8.5742-11.09-15.441-9.4531l-70.035 16.859c-2.293 0.55469-4.3867 1.7266-6.0586 3.3945l-133.75 133.77c-2.4023 2.4023-3.7461 5.6523-3.7461 9.0508 0 3.3984 1.3516 6.6523 3.7461 9.0508l106.35 106.34c2.5 2.5 5.7734 3.7461 9.0508 3.7461s6.5469-1.25 9.0508-3.7461l133.76-133.76c1.668-1.668 2.8398-3.7617 3.3945-6.0586l16.859-70.035c1.6602-6.8672-2.5742-13.777-9.4453-15.434zm-91.602 8.8125c-10.441 0-20.246 4.0664-27.617 11.441-7.3789 7.3789-11.441 17.188-11.449 27.617 0 10.434 4.0586 20.246 11.441 27.621 7.3789 7.3789 17.188 11.441 27.621 11.441s20.246-4.0586 27.621-11.438c12.051-12.059 14.527-30.078 7.4961-44.633l64.445-64.449c4.9961-4.9961 4.9961-13.102 0-18.105-5.0039-4.9961-13.102-4.9961-18.105 0l-64.422 64.441c-5.25-2.5508-11.027-3.9375-17.031-3.9375zm9.5195 48.586c-5.0898 5.0781-13.953 5.0859-19.043 0-2.543-2.543-3.9414-5.9258-3.9414-9.5117 0-3.5938 1.4023-6.9805 3.9531-9.5234 2.5391-2.543 5.918-3.9414 9.5078-3.9414 3.5977 0 6.9805 1.4023 9.5234 3.9492 5.25 5.2305 5.25 13.777 0 19.027z"></path></svg>