<svg xmlns="http://www.w3.org/2000/svg" width="512pt" height="512pt" viewBox="0 0 512 512"><defs><clipPath id="a"><path d="m94.781 94.781h322.44v322.44h-322.44z"></path></clipPath></defs><g clip-path="url(#a)"><path d="m288.86 94.781c-13.137 0-25.742 5.2227-35.027 14.512l-142.51 142.51c-22.059 22.062-22.059 58.07 0 80.133l68.738 68.742c22.059 22.062 58.07 22.059 80.133 0l142.52-142.51c9.2891-9.2891 14.508-21.898 14.508-35.035v-103.11c0-13.844-11.395-25.242-25.242-25.242zm0 16.121h103.11c5.1328 0 9.125 3.9883 9.125 9.1172v103.11c0 8.8672-3.5234 17.359-9.793 23.629l-142.51 142.51c-15.898 15.898-41.434 15.898-57.332 0l-68.742-68.738c-15.898-15.898-15.898-41.434 0-57.336l142.51-142.51c6.2695-6.2695 14.762-9.7852 23.629-9.7852z" fill-rule="evenodd"></path></g><path d="m303.3 245.9-109.36 109.36c-3.1484 3.1484-3.1484 8.2539 0 11.398 3.1484 3.1484 8.25 3.1484 11.398 0l109.36-109.36c1.5117-1.5117 2.3633-3.5625 2.3633-5.7031 0-2.1406-0.85156-4.1914-2.3633-5.7031-1.5117-1.5117-3.5625-2.3633-5.7031-2.3633-2.1367 0-4.1914 0.85156-5.7031 2.3633z" fill-rule="evenodd"></path><path d="m260.4 243.54c-2.1406 0-4.1875 0.85156-5.6992 2.3633l-85.062 85.055c-1.5117 1.5117-2.3633 3.5664-2.3633 5.7031 0 2.1406 0.85156 4.1914 2.3633 5.7031 3.1484 3.1484 8.25 3.1484 11.398 0l85.059-85.062c3.1484-3.1484 3.1484-8.25 0-11.398-1.5117-1.5117-3.5586-2.3594-5.6992-2.3594z" fill-rule="evenodd"></path><path d="m211.8 243.54c-2.1406 0-4.1914 0.85156-5.6992 2.3633l-60.762 60.762c-3.1484 3.1445-3.1484 8.25 0 11.398 3.1484 3.1445 8.25 3.1445 11.398 0l60.758-60.758v-0.003906c3.1484-3.1484 3.1484-8.25 0-11.398-1.5117-1.5117-3.5586-2.3594-5.6992-2.3594z" fill-rule="evenodd"></path><path d="m333.29 136.31c-10.891 0-21.777 4.1328-30.039 12.395-16.523 16.523-16.523 43.551 0 60.074 16.523 16.523 43.559 16.523 60.078 0 16.523-16.523 16.523-43.551 0-60.074-8.2617-8.2617-19.152-12.395-30.039-12.395zm0 16.023c6.7305 0 13.461 2.5898 18.641 7.7734 10.363 10.363 10.363 26.914 0 37.277-10.363 10.363-26.922 10.363-37.281 0-10.363-10.363-10.363-26.914 0-37.277 5.1797-5.1797 11.91-7.7734 18.641-7.7734z" fill-rule="evenodd"></path></svg>