<svg xmlns="http://www.w3.org/2000/svg" width="512pt" height="512pt" viewBox="0 0 512 512"><path d="m163.21 198.93h185.57v-57.676c0-51-41.785-92.785-92.797-92.785-51.105 0-92.773 41.68-92.773 92.785v57.676zm234.03 2.5234c28.852 8.0703 50.145 34.652 50.145 65.988v176.05c0 37.691-30.82 68.512-68.5 68.512h-245.78c-37.691 0-68.512-30.82-68.512-68.512v-176.05c0-31.336 21.297-57.918 50.133-65.988v-60.199c0-77.613 63.645-141.25 141.25-141.25 77.711 0 141.26 63.539 141.26 141.25v60.199zm-141.25 89.289c24.336 0 44.066 19.734 44.066 44.055 0 13.477-6.0547 25.535-15.578 33.605-5.2617 4.4688-8.0117 10.391-8.0117 17.297v14.039c0 11.289-9.2227 20.465-20.492 20.465-11.266 0-20.465-9.1992-20.465-20.465v-14.039c0-6.9062-2.75-12.828-8-17.297-9.5234-8.0703-15.59-20.129-15.59-33.605 0-24.32 19.746-44.055 44.066-44.055z" fill-rule="evenodd"></path></svg>