<svg width="620" height="570" viewBox="0 0 620 570" fill="none" xmlns="http://www.w3.org/2000/svg">
<rect x="5" y="5" width="560" height="560" rx="160" stroke="white" stroke-width="10"/>
<rect x="433.971" y="191.742" width="185.036" height="63.7423" transform="rotate(-180 433.971 191.742)" fill="white"/>
<rect x="433.971" y="191.742" width="185.036" height="63.7423" transform="rotate(-180 433.971 191.742)" fill="white"/>
<rect x="137" y="441.612" width="313.612" height="57.1099" transform="rotate(-90 137 441.612)" fill="white"/>
<rect x="137" y="441.612" width="313.612" height="57.1099" transform="rotate(-90 137 441.612)" fill="white"/>
<rect x="433.971" y="316.677" width="185.036" height="63.7423" transform="rotate(-180 433.971 316.677)" fill="white"/>
<rect x="433.971" y="316.677" width="185.036" height="63.7423" transform="rotate(-180 433.971 316.677)" fill="white"/>
<rect x="433.971" y="441.612" width="185.036" height="63.7423" transform="rotate(-180 433.971 441.612)" fill="white"/>
<rect x="433.971" y="441.612" width="185.036" height="63.7423" transform="rotate(-180 433.971 441.612)" fill="white"/>
<rect x="-5" y="5" width="239" height="441" rx="75" transform="matrix(-1 0 0 1 610 59)" fill="white" fill-opacity="0.62" stroke="white" stroke-width="10"/>
</svg>
