<svg width="644" height="570" viewBox="0 0 644 570" fill="none" xmlns="http://www.w3.org/2000/svg">
<rect x="5" y="5" width="560" height="560" rx="160" fill="#E8E8E8" stroke="white" stroke-width="10"/>
<rect x="433.971" y="195.742" width="185.036" height="63.7423" transform="rotate(-180 433.971 195.742)" fill="white"/>
<rect x="433.971" y="195.742" width="185.036" height="63.7423" transform="rotate(-180 433.971 195.742)" fill="white"/>
<rect x="137" y="445.612" width="313.612" height="57.1099" transform="rotate(-90 137 445.612)" fill="white"/>
<rect x="137" y="445.612" width="313.612" height="57.1099" transform="rotate(-90 137 445.612)" fill="white"/>
<rect x="433.971" y="320.677" width="185.036" height="63.7423" transform="rotate(-180 433.971 320.677)" fill="white"/>
<rect x="433.971" y="320.677" width="185.036" height="63.7423" transform="rotate(-180 433.971 320.677)" fill="white"/>
<rect x="433.971" y="445.612" width="185.036" height="63.7423" transform="rotate(-180 433.971 445.612)" fill="white"/>
<rect x="433.971" y="445.612" width="185.036" height="63.7423" transform="rotate(-180 433.971 445.612)" fill="white"/>
<rect x="351" y="60" width="288" height="450" rx="85" fill="white" fill-opacity="0.81" stroke="white" stroke-width="10"/>
</svg>
